{
  "accessors": [
    {
      "bufferView": 2,
      "componentType": 5126,
      "count": 3842,
      "max": [
        -1.6655000448226929,
        0.2761000096797943,
        39.29990005493164
      ],
      "min": [
        -2.1826999187469482,
        -0.20340000092983246,
        38.79010009765625
      ],
      "type": "VEC3"
    },
    {
      "bufferView": 2,
      "byteOffset": 46104,
      "componentType": 5126,
      "count": 3842,
      "max": [
        0.9987665414810181,
        1.0,
        0.9987657070159912
      ],
      "min": [
        -0.9999643564224243,
        -0.9999985694885254,
        -0.9982848763465881
      ],
      "type": "VEC3"
    },
    {
      "bufferView": 1,
      "componentType": 5126,
      "count": 3842,
      "max": [
        0.9373999834060669,
        0.9305999875068665
      ],
      "min": [
        0.0560000017285347,
        0.03200000151991844
      ],
      "type": "VEC2"
    },
    {
      "bufferView": 0,
      "componentType": 5125,
      "count": 23040,
      "type": "SCALAR"
    },
    {
      "bufferView": 2,
      "byteOffset": 92208,
      "componentType": 5126,
      "count": 3842,
      "max": [
        2.0913000106811523,
        0.2879999876022339,
        39.28329849243164
      ],
      "min": [
        1.6028000116348267,
        -0.21870000660419464,
        38.79800033569336
      ],
      "type": "VEC3"
    },
    {
      "bufferView": 2,
      "byteOffset": 138312,
      "componentType": 5126,
      "count": 3842,
      "max": [
        0.9999076128005981,
        0.9997790455818176,
        0.9997528195381165
      ],
      "min": [
        -0.9999251365661621,
        -0.9983505606651306,
        -0.9997605681419373
      ],
      "type": "VEC3"
    },
    {
      "bufferView": 1,
      "byteOffset": 30736,
      "componentType": 5126,
      "count": 3842,
      "max": [
        0.9373999834060669,
        0.9305999875068665
      ],
      "min": [
        0.0560000017285347,
        0.03200000151991844
      ],
      "type": "VEC2"
    },
    {
      "bufferView": 0,
      "byteOffset": 92160,
      "componentType": 5125,
      "count": 23040,
      "type": "SCALAR"
    },
    {
      "bufferView": 2,
      "byteOffset": 184416,
      "componentType": 5126,
      "count": 31436,
      "max": [
        2.1398000717163086,
        1.7518999576568604,
        40.0275993347168
      ],
      "min": [
        -2.237499952316284,
        -1.2238999605178833,
        34.26259994506836
      ],
      "type": "VEC3"
    },
    {
      "bufferView": 2,
      "byteOffset": 561648,
      "componentType": 5126,
      "count": 31436,
      "max": [
        0.9999672174453735,
        0.9999679327011108,
        0.9999954700469971
      ],
      "min": [
        -0.9999904632568359,
        -0.9999014139175415,
        -0.9982295036315918
      ],
      "type": "VEC3"
    },
    {
      "bufferView": 1,
      "byteOffset": 61472,
      "componentType": 5126,
      "count": 31436,
      "max": [
        0.9980000257492065,
        0.9962000250816345
      ],
      "min": [
        0.0020000000949949026,
        0.0020000000949949026
      ],
      "type": "VEC2"
    },
    {
      "bufferView": 0,
      "byteOffset": 184320,
      "componentType": 5125,
      "count": 179520,
      "type": "SCALAR"
    }
  ],
  "asset": {
    "extras": {
      "author": "CVallance (https://sketchfab.com/cvallance01)",
      "license": "CC-BY-4.0 (http://creativecommons.org/licenses/by/4.0/)",
      "source": "https://sketchfab.com/3d-models/female-reproductive-organs-whole-a7638a209026490fa3c8a3f9eecafcf9",
      "title": "Female Reproductive Organs- Whole"
    },
    "generator": "Sketchfab-12.67.0",
    "version": "2.0"
  },
  "bufferViews": [
    {
      "buffer": 0,
      "byteLength": 902400,
      "name": "floatBufferViews",
      "target": 34963
    },
    {
      "buffer": 0,
      "byteLength": 312960,
      "byteOffset": 902400,
      "byteStride": 8,
      "name": "floatBufferViews",
      "target": 34962
    },
    {
      "buffer": 0,
      "byteLength": 938880,
      "byteOffset": 1215360,
      "byteStride": 12,
      "name": "floatBufferViews",
      "target": 34962
    }
  ],
  "buffers": [
    {
      "byteLength": 2154240,
      "uri": "scene.bin"
    }
  ],
  "extensionsRequired": [
    "KHR_materials_pbrSpecularGlossiness"
  ],
  "extensionsUsed": [
    "KHR_materials_pbrSpecularGlossiness"
  ],
  "images": [
    {
      "uri": "textures/Ovary2_diffuse.png"
    },
    {
      "uri": "textures/Uterus_Whole_diffuse.jpeg"
    },
    {
      "uri": "textures/Uterus_Whole_specularGlossiness.png"
    }
  ],
  "materials": [
    {
      "doubleSided": true,
      "emissiveFactor": [
        0.8,
        0.8,
        0.8
      ],
      "emissiveTexture": {
        "index": 0
      },
      "extensions": {
        "KHR_materials_pbrSpecularGlossiness": {
          "diffuseFactor": [
            1.0,
            1.0,
            1.0,
            1.0
          ],
          "diffuseTexture": {
            "index": 0
          },
          "glossinessFactor": 0.8,
          "specularFactor": [
            0.0,
            0.0,
            0.0
          ]
        }
      },
      "name": "Ovary2"
    },
    {
      "doubleSided": true,
      "emissiveFactor": [
        0.626905487804878,
        0.626905487804878,
        0.626905487804878
      ],
      "emissiveTexture": {
        "index": 1
      },
      "extensions": {
        "KHR_materials_pbrSpecularGlossiness": {
          "diffuseFactor": [
            1.0,
            1.0,
            1.0,
            1.0
          ],
          "diffuseTexture": {
            "index": 1
          },
          "glossinessFactor": 1.0,
          "specularFactor": [
            0.0,
            0.0,
            0.0
          ],
          "specularGlossinessTexture": {
            "index": 2
          }
        }
      },
      "name": "Uterus_Whole"
    }
  ],
  "meshes": [
    {
      "name": "Object_0",
      "primitives": [
        {
          "attributes": {
            "NORMAL": 1,
            "POSITION": 0,
            "TEXCOORD_0": 2
          },
          "indices": 3,
          "material": 0,
          "mode": 4
        }
      ]
    },
    {
      "name": "Object_1",
      "primitives": [
        {
          "attributes": {
            "NORMAL": 5,
            "POSITION": 4,
            "TEXCOORD_0": 6
          },
          "indices": 7,
          "material": 0,
          "mode": 4
        }
      ]
    },
    {
      "name": "Object_2",
      "primitives": [
        {
          "attributes": {
            "NORMAL": 9,
            "POSITION": 8,
            "TEXCOORD_0": 10
          },
          "indices": 11,
          "material": 1,
          "mode": 4
        }
      ]
    }
  ],
  "nodes": [
    {
      "children": [
        1
      ],
      "matrix": [
        1.0,
        0.0,
        0.0,
        0.0,
        0.0,
        2.220446049250313e-16,
        -1.0,
        0.0,
        0.0,
        1.0,
        2.220446049250313e-16,
        0.0,
        0.0,
        0.0,
        0.0,
        1.0
      ],
      "name": "Sketchfab_model"
    },
    {
      "children": [
        2,
        3,
        4
      ],
      "name": "Uterus-Whole.obj.cleaner"
    },
    {
      "mesh": 0,
      "name": "Object_2"
    },
    {
      "mesh": 1,
      "name": "Object_3"
    },
    {
      "mesh": 2,
      "name": "Object_4"
    }
  ],
  "samplers": [
    {
      "magFilter": 9729,
      "minFilter": 9987,
      "wrapS": 10497,
      "wrapT": 10497
    }
  ],
  "scene": 0,
  "scenes": [
    {
      "name": "Sketchfab_Scene",
      "nodes": [
        0
      ]
    }
  ],
  "textures": [
    {
      "sampler": 0,
      "source": 0
    },
    {
      "sampler": 0,
      "source": 1
    },
    {
      "sampler": 0,
      "source": 2
    }
  ]
}
